<mxfile host="app.diagrams.net" modified="2023-07-24T09:20:00.646Z" agent="Mozilla/5.0 (X11; Linux x86_64; rv:109.0) Gecko/20100101 Firefox/114.0" etag="pNa2AIlX91c-abMOH_oP" version="21.3.3" type="github">
  <diagram name="Page-1" id="5HQ0XRLaqg44d9xyagqh">
    <mxGraphModel dx="1215" dy="652" grid="1" gridSize="10" guides="1" tooltips="1" connect="1" arrows="1" fold="1" page="1" pageScale="1" pageWidth="850" pageHeight="1100" background="none" math="0" shadow="0">
      <root>
        <mxCell id="0" />
        <mxCell id="1" parent="0" />
        <mxCell id="6sjZy6x-_zXDmj_1aldC-1" value="" style="rounded=0;whiteSpace=wrap;html=1;" vertex="1" parent="1">
          <mxGeometry x="40" y="80" width="270" height="140" as="geometry" />
        </mxCell>
        <mxCell id="6sjZy6x-_zXDmj_1aldC-2" value="Cluster" style="text;html=1;align=center;verticalAlign=middle;resizable=0;points=[];autosize=1;strokeColor=none;fillColor=none;" vertex="1" parent="1">
          <mxGeometry x="40" y="50" width="60" height="30" as="geometry" />
        </mxCell>
        <mxCell id="6sjZy6x-_zXDmj_1aldC-4" value="" style="rounded=0;whiteSpace=wrap;html=1;" vertex="1" parent="1">
          <mxGeometry x="50" y="120" width="120" height="90" as="geometry" />
        </mxCell>
        <mxCell id="6sjZy6x-_zXDmj_1aldC-5" value="Node 1" style="text;html=1;align=center;verticalAlign=middle;resizable=0;points=[];autosize=1;strokeColor=none;fillColor=none;" vertex="1" parent="1">
          <mxGeometry x="50" y="90" width="60" height="30" as="geometry" />
        </mxCell>
        <mxCell id="6sjZy6x-_zXDmj_1aldC-6" value="&lt;div&gt;Primary Shard A&lt;/div&gt;" style="rounded=0;whiteSpace=wrap;html=1;" vertex="1" parent="1">
          <mxGeometry x="60" y="130" width="100" height="30" as="geometry" />
        </mxCell>
        <mxCell id="6sjZy6x-_zXDmj_1aldC-7" value="Replica Shard B" style="rounded=0;whiteSpace=wrap;html=1;" vertex="1" parent="1">
          <mxGeometry x="60" y="170" width="100" height="30" as="geometry" />
        </mxCell>
        <mxCell id="6sjZy6x-_zXDmj_1aldC-8" value="" style="rounded=0;whiteSpace=wrap;html=1;" vertex="1" parent="1">
          <mxGeometry x="180" y="120" width="120" height="90" as="geometry" />
        </mxCell>
        <mxCell id="6sjZy6x-_zXDmj_1aldC-9" value="Node 2" style="text;html=1;align=center;verticalAlign=middle;resizable=0;points=[];autosize=1;strokeColor=none;fillColor=none;" vertex="1" parent="1">
          <mxGeometry x="180" y="90" width="60" height="30" as="geometry" />
        </mxCell>
        <mxCell id="6sjZy6x-_zXDmj_1aldC-10" value="&lt;div&gt;Replica Shard A&lt;/div&gt;" style="rounded=0;whiteSpace=wrap;html=1;" vertex="1" parent="1">
          <mxGeometry x="190" y="130" width="100" height="30" as="geometry" />
        </mxCell>
        <mxCell id="6sjZy6x-_zXDmj_1aldC-11" value="Primary Shard B" style="rounded=0;whiteSpace=wrap;html=1;" vertex="1" parent="1">
          <mxGeometry x="190" y="170" width="100" height="30" as="geometry" />
        </mxCell>
      </root>
    </mxGraphModel>
  </diagram>
</mxfile>
